<svg width="22" height="18" viewBox="0 0 22 18" fill="none" xmlns="http://www.w3.org/2000/svg">
<path fill-rule="evenodd" clip-rule="evenodd" d="M11 0.25C8.52631 0.25 6.17304 0.40962 4.04751 0.69767C1.78476 1.0043 0.25 2.99235 0.25 5.19868V12.8013C0.25 15.0076 1.78476 16.9957 4.04751 17.3023C6.17304 17.5904 8.52631 17.75 11 17.75C13.4737 17.75 15.827 17.5904 17.9525 17.3023C20.2152 16.9957 21.75 15.0076 21.75 12.8013V5.19869C21.75 2.99235 20.2152 1.0043 17.9525 0.69767C15.827 0.40962 13.4737 0.25 11 0.25ZM9.3859 5.35688C9.1542 5.21786 8.86561 5.21422 8.63048 5.34735C8.39534 5.48048 8.25 5.7298 8.25 6V12C8.25 12.2702 8.39534 12.5195 8.63048 12.6526C8.86561 12.7858 9.1542 12.7821 9.3859 12.6431L14.3859 9.6431C14.6118 9.5076 14.75 9.2634 14.75 9C14.75 8.7366 14.6118 8.4924 14.3859 8.3569L9.3859 5.35688Z" fill="white"/>
</svg>
